<svg version="1.1" id="Layer_1" xmlns="http://www.w3.org/2000/svg" xmlns:xlink="http://www.w3.org/1999/xlink" x="0px" y="0px"
	 width="100%" viewBox="0 0 512 512" enable-background="new 0 0 512 512" xml:space="preserve">
<path fill="#000000" opacity="1.000000" stroke="none" 
	d="
M1.283269,210.222351 
	C1.000000,148.645767 1.000000,87.291542 1.000000,25.468658 
	C4.089829,23.392393 5.671664,25.643917 7.124521,27.610968 
	C10.219112,31.800791 10.393972,36.599365 9.400986,41.484360 
	C7.343038,51.608421 5.726772,61.715759 5.916283,72.154793 
	C6.301681,93.384048 19.483486,108.551674 40.498859,112.154129 
	C51.880363,114.105141 62.664768,111.287605 73.654449,109.741852 
	C75.136368,109.533401 76.602936,109.205414 78.102821,109.126717 
	C89.052002,108.552292 95.473999,115.208710 94.418793,126.107018 
	C94.001556,130.416275 93.232567,134.675507 92.395424,138.925797 
	C90.709129,147.487427 90.298096,156.083237 91.927261,164.716934 
	C95.748695,184.968369 110.799797,197.355438 131.506042,198.090469 
	C141.811066,198.456299 151.645844,195.800674 161.731750,194.878876 
	C174.943588,193.671356 181.524826,200.436264 179.658920,213.719727 
	C178.525101,221.791306 176.372772,229.695923 175.401871,237.806229 
	C173.950027,249.934174 176.550858,260.976257 184.271347,270.599731 
	C189.564407,277.197510 198.069901,278.948273 203.702255,274.720032 
	C210.558243,269.573212 211.933197,261.435089 206.862549,253.988327 
	C203.449677,248.976196 202.403778,243.758789 203.700409,237.869675 
	C205.886917,227.938950 207.244934,217.954819 207.080246,207.692123 
	C206.710587,184.656113 190.260590,167.861740 167.147995,166.938736 
	C157.008698,166.533798 147.322342,169.026764 137.437958,170.248154 
	C124.424965,171.856140 117.319160,164.944290 118.867683,151.987183 
	C120.050003,142.094330 122.649864,132.366455 122.003502,122.261169 
	C121.276909,110.901588 117.905762,100.804398 109.404305,92.729912 
	C102.563271,86.232445 94.342178,82.815292 85.188301,82.171104 
	C76.748695,81.577179 68.220100,81.513397 59.868721,83.751129 
	C55.841606,84.830185 51.676647,85.145203 47.482090,84.997253 
	C38.244518,84.671425 33.018383,79.415298 33.078102,70.101280 
	C33.126499,62.553478 35.364521,55.316181 36.731205,47.965965 
	C38.862137,36.505520 38.552158,25.450991 32.681473,15.009812 
	C30.952427,11.934654 28.843464,9.188802 26.335581,6.710912 
	C24.942801,5.334788 23.256613,4.041640 23.774708,1.347455 
	C90.687561,1.000000 157.375122,1.000000 224.531342,1.000000 
	C226.512192,4.455564 223.291412,5.623305 221.718323,7.431695 
	C214.016510,16.285458 217.312286,29.591438 228.172272,33.075344 
	C234.893188,35.231422 242.342880,32.639225 246.156631,26.817520 
	C250.238327,20.586742 249.576691,13.171891 244.577789,7.467891 
	C243.012161,5.681430 240.246368,4.641138 240.780457,1.278340 
	C318.354218,1.000000 395.708466,1.000000 473.531342,1.000000 
	C475.354858,3.790852 473.034607,4.578290 471.097961,5.946423 
	C455.687653,15.735385 452.095367,38.771000 470.520935,51.756310 
	C484.558136,59.449352 498.662750,56.146461 507.675720,43.364784 
	C508.870941,41.669796 509.629944,39.331387 512.703186,39.780037 
	C513.000000,160.687561 513.000000,281.375122 513.000000,402.531342 
	C509.546722,404.512512 508.380615,401.292786 506.572113,399.721680 
	C498.169556,392.421814 485.675507,394.836273 481.460602,404.689758 
	C478.533875,411.531830 480.754822,419.653656 486.692200,423.821350 
	C492.718628,428.051544 500.933563,427.478333 506.535767,422.574158 
	C508.322113,421.010437 509.360962,418.245453 512.721924,418.780457 
	C513.000000,449.249115 512.954407,479.498383 513.077148,509.747009 
	C513.088257,512.489014 512.563782,513.103699 509.770081,513.082092 
	C489.826813,512.928162 469.881775,513.000000 449.468658,513.000000 
	C447.654999,509.536377 450.756561,508.841949 452.573120,507.550049 
	C460.033295,502.244568 464.793488,495.397461 465.065002,486.006592 
	C465.637207,466.216095 447.143524,453.068512 428.596985,460.031616 
	C427.200134,460.556061 425.838501,461.181305 424.172241,461.993591 
	C407.359558,475.167542 407.446045,495.322906 424.394714,507.750763 
	C426.283417,509.136597 428.629150,509.688721 428.221069,512.681152 
	C368.645782,513.000000 309.291534,513.000000 249.468658,513.000000 
	C247.567810,510.629181 249.249191,509.212463 250.737411,507.940613 
	C254.236679,504.950073 258.357025,504.024109 262.886017,504.673096 
	C270.633087,505.783081 278.221497,507.869781 286.019440,508.610718 
	C299.370850,509.879395 311.932037,507.900909 322.722107,499.116760 
	C327.630280,495.121033 331.027069,490.081818 333.237915,484.209106 
	C337.281403,473.468384 337.761078,462.490784 335.496277,451.294830 
	C334.506805,446.403442 333.391144,441.508331 333.113129,436.511017 
	C332.522705,425.897186 337.889526,420.196472 348.466309,420.023987 
	C351.140717,419.980377 353.789093,420.192963 356.408386,420.779236 
	C364.576416,422.607605 372.838501,423.111877 381.209137,423.044586 
	C404.875549,422.854248 421.195221,406.696838 422.072906,382.931366 
	C422.459900,372.453247 419.678925,362.463379 418.691345,352.212036 
	C417.566742,340.538818 424.220398,333.654572 435.856079,334.698700 
	C441.513153,335.206360 447.035004,336.470245 452.589203,337.549835 
	C461.160828,339.215820 469.746185,339.735626 478.383759,338.118164 
	C486.050629,336.682465 492.353729,332.864471 497.440216,327.027588 
	C502.208557,321.555817 502.078766,314.437286 497.220398,308.876526 
	C492.672821,303.671509 485.066956,302.124268 479.655518,306.361206 
	C473.327759,311.315613 466.665497,311.519531 459.348297,310.241364 
	C450.019318,308.611755 440.753448,306.235565 431.145935,307.026978 
	C420.257874,307.923889 410.255951,310.853912 402.330688,319.017273 
	C394.695099,326.882263 391.912323,336.582886 391.013733,347.118378 
	C390.136536,357.403351 392.966339,367.284424 394.190887,377.340363 
	C395.777557,390.369965 389.337097,397.122925 376.286591,395.780273 
	C368.839661,395.014130 361.559448,392.948212 354.077332,392.416107 
	C339.863770,391.405243 326.835754,394.416901 316.546295,404.954742 
	C309.758728,411.906128 306.608704,420.659485 306.066193,430.254974 
	C305.547668,439.426514 306.047913,448.568695 308.207916,457.552917 
	C308.995331,460.828156 309.110870,464.155304 308.953339,467.490295 
	C308.550629,476.015228 303.985291,480.496857 295.377441,480.969666 
	C290.335999,481.246582 285.365692,480.697571 280.525513,479.392456 
	C271.560089,476.975067 262.424774,476.545776 253.262314,477.104126 
	C244.229431,477.654602 236.582260,481.685150 230.438278,488.195526 
	C225.386246,493.548737 225.722977,501.625336 230.701126,507.256256 
	C231.998413,508.723602 233.751053,509.962830 233.225113,512.654053 
	C190.312439,513.000000 147.624878,513.000000 104.468658,513.000000 
	C102.433884,509.784332 105.414536,508.615234 106.899849,506.939331 
	C114.996124,497.804474 111.451859,484.476654 99.904282,480.959686 
	C93.512665,479.013062 86.433723,481.490326 82.848167,486.928406 
	C78.653618,493.290161 79.172264,500.978119 84.126419,506.724060 
	C85.579124,508.408875 87.973305,509.585144 87.222275,512.717529 
	C59.436302,513.000000 31.872433,512.957886 4.309176,513.068359 
	C1.693615,513.078857 0.827813,512.759766 0.907054,509.830597 
	C1.158420,500.538788 1.000000,491.235901 1.000000,481.468658 
	C3.480744,479.364380 5.044714,481.312897 6.703840,482.548706 
	C13.144695,487.346252 19.697050,487.731384 25.961266,482.775482 
	C40.578571,471.211121 49.157677,455.865051 52.355015,437.657562 
	C56.332737,415.006195 51.361805,394.330475 37.316433,376.009003 
	C32.842361,370.172791 26.713575,368.374268 20.486065,370.676758 
	C12.231782,373.728607 9.012834,384.055786 14.056500,391.960083 
	C17.016184,396.598419 20.197977,401.072327 22.113937,406.296600 
	C29.040798,425.184265 25.309883,442.056976 12.117991,456.846313 
	C9.158808,460.163849 6.814549,464.678162 1.309566,465.222412 
	C1.000000,385.979095 1.000000,306.958221 1.000000,227.468658 
	C4.438214,225.489761 5.629245,228.676483 7.439970,230.249725 
	C16.263765,237.916107 29.593378,234.584732 33.060211,223.748169 
	C35.156425,217.195877 32.741238,209.945328 27.186655,206.115295 
	C21.076385,201.902100 13.821094,202.227478 7.730928,206.865265 
	C5.841844,208.303848 4.624570,210.992081 1.283269,210.222351 
z"/>
<path fill="#FFE966" opacity="1.000000" stroke="none" 
	d="
M233.466858,513.000000 
	C234.207260,512.112427 233.048859,511.526459 232.597656,511.193115 
	C221.722855,503.158691 222.261017,490.813110 233.053345,482.869843 
	C245.027710,474.056610 258.043365,474.137573 271.788391,475.823151 
	C279.869354,476.814148 287.629028,479.791199 296.007172,479.099945 
	C302.754883,478.543182 306.727234,474.869812 307.051758,468.185791 
	C307.390411,461.211243 305.101746,454.634766 304.458038,447.843506 
	C302.831451,430.682159 303.189697,413.855865 317.449585,401.144043 
	C323.993103,395.310883 331.913330,392.469421 340.592743,390.859924 
	C352.451172,388.660980 363.552277,392.003693 374.927765,393.867676 
	C378.932800,394.523926 383.112732,394.328705 387.002930,392.533356 
	C390.691803,390.830963 393.591949,385.717346 392.918549,380.637543 
	C392.047455,374.066620 390.324280,367.605255 389.522095,361.029144 
	C387.342804,343.163483 390.007019,323.200287 407.664551,311.974670 
	C418.742126,304.932129 431.226288,303.911743 443.988861,305.476501 
	C452.212341,306.484711 460.182404,309.149078 468.593506,309.061951 
	C471.747559,309.029266 474.221954,308.223816 476.550690,306.017242 
	C482.852692,300.045898 492.235321,300.521729 498.411163,306.905304 
	C504.630219,313.333496 504.588104,322.461578 498.720123,328.851410 
	C487.351746,341.230865 472.975830,342.504181 457.666565,340.252960 
	C449.827057,339.100220 442.080109,337.327698 434.250214,336.096680 
	C425.577698,334.733185 419.510498,342.618500 420.633270,351.564117 
	C422.016510,362.584778 425.068878,373.451935 424.041870,384.772217 
	C421.978058,407.520508 407.120850,424.701965 382.565155,425.030090 
	C372.843842,425.159973 363.305939,424.466553 353.765320,422.229645 
	C349.329681,421.189636 344.171417,421.054810 339.864349,423.741638 
	C335.533234,426.443512 333.936676,433.354492 335.315765,439.807831 
	C337.118317,448.242706 339.095581,456.732941 338.919006,465.395905 
	C338.672119,477.509766 335.741547,489.122772 327.188934,498.033661 
	C320.887756,504.598907 312.708862,508.502319 303.390808,510.109833 
	C291.108887,512.228638 279.355042,510.000153 267.563965,507.237640 
	C260.204102,505.513306 253.445404,505.893524 248.679443,512.733887 
	C243.977905,513.000000 238.955811,513.000000 233.466858,513.000000 
z"/>
<path fill="#FFE966" opacity="1.000000" stroke="none" 
	d="
M23.533882,1.000000 
	C22.875898,2.276732 24.168234,2.469057 24.862949,2.957302 
	C37.438904,11.795669 41.544979,29.385210 39.665432,42.765400 
	C38.357670,52.075134 35.259125,61.107113 35.046383,70.571564 
	C34.858845,78.914848 39.050594,82.923882 47.242466,83.027473 
	C52.027649,83.087982 56.635265,82.214035 61.335835,81.438210 
	C75.812309,79.048843 90.249763,78.041664 103.740196,85.940598 
	C114.224731,92.079536 120.493820,101.308594 122.885010,112.905212 
	C125.299095,124.612862 123.864975,136.274185 121.325768,147.955582 
	C120.616806,151.217163 119.359009,154.856888 120.753830,158.920319 
	C123.452507,166.782196 128.270035,169.619492 136.480789,168.383301 
	C147.130295,166.779968 157.692230,164.030151 168.658249,164.972153 
	C191.892578,166.968018 208.456802,182.966309 209.054230,206.227554 
	C209.346939,217.624939 208.024902,228.728470 205.190399,239.754868 
	C204.009613,244.348251 204.863800,249.049683 208.295181,252.610870 
	C215.037262,259.607971 212.828491,271.443054 204.068771,277.203308 
	C198.634094,280.777100 188.347733,280.244812 181.894882,271.002655 
	C174.305756,260.133087 171.885513,248.679672 173.749634,235.537750 
	C174.983170,226.841431 177.943787,218.445312 178.009125,209.577728 
	C178.078903,200.108643 173.066010,195.949173 162.895630,196.800980 
	C152.944916,197.634399 143.313248,200.375275 133.150909,200.166534 
	C110.711304,199.705566 92.743347,186.389465 89.801086,164.274231 
	C88.385391,153.633301 89.360832,143.427338 91.414742,133.131485 
	C92.491730,127.732689 93.747261,122.199310 91.352631,117.002419 
	C88.682983,111.208710 83.097267,110.506409 77.586029,111.079781 
	C70.485504,111.818504 63.502090,113.427528 56.406982,114.394470 
	C35.121204,117.295311 10.189961,107.739861 5.049536,82.066277 
	C2.628983,69.976952 3.711498,57.900204 6.545579,45.975430 
	C8.464357,37.901917 9.826542,30.025274 1.258913,24.680748 
	C1.000000,19.977907 1.000000,14.955815 1.000000,9.466862 
	C2.971540,5.956637 5.077514,3.047587 8.759838,1.236758 
	C13.689256,1.000000 18.378511,1.000000 23.533882,1.000000 
z"/>
<path fill="#FF70EA" opacity="1.000000" stroke="none" 
	d="
M1.000000,465.466858 
	C4.206808,464.612885 4.727804,461.318329 6.748423,459.595154 
	C14.338743,453.122192 19.490452,445.059937 22.069681,435.262756 
	C25.879381,420.791687 23.182980,407.426453 14.182329,395.985901 
	C6.362724,386.046570 9.780812,372.202148 19.001978,369.047852 
	C26.400972,366.516846 33.427631,367.245117 38.392040,373.998505 
	C47.927692,386.970428 54.145882,401.104736 55.168941,417.637543 
	C56.504951,439.227722 50.864258,458.110931 36.956379,474.663116 
	C34.323803,477.796204 31.873705,480.900665 28.417498,483.268097 
	C17.754436,490.572144 12.234413,490.306183 3.077931,481.594971 
	C2.600773,481.141022 2.036368,480.778778 1.256291,480.686890 
	C1.000000,475.977905 1.000000,470.955811 1.000000,465.466858 
z"/>
<path fill="#17ABFA" opacity="1.000000" stroke="none" 
	d="
M469.798462,5.230061 
	C471.098572,3.194232 473.711975,3.530071 474.311584,1.256311 
	C481.020966,1.000000 488.041901,1.000000 495.531433,1.000000 
	C503.833527,4.158767 509.858765,9.130810 512.760437,17.737642 
	C513.000000,25.020948 513.000000,32.041897 513.000000,39.531422 
	C510.326904,38.920937 510.627106,41.746384 510.195740,42.625378 
	C503.298584,56.680687 483.832214,62.489689 470.101562,53.443573 
	C469.031555,50.993046 470.532562,49.690994 471.645813,48.316998 
	C483.343231,33.879669 483.312592,24.449598 471.476959,9.513054 
	C470.548248,8.341031 469.577606,7.199675 469.798462,5.230061 
z"/>
<path fill="#17ABFA" opacity="1.000000" stroke="none" 
	d="
M428.468536,513.000000 
	C428.821075,509.516296 424.406067,512.120850 424.097534,509.430237 
	C422.406433,506.167694 425.045166,504.895477 426.387146,503.246857 
	C436.207397,491.183136 436.088440,476.846527 426.005676,466.316223 
	C424.656952,464.907654 422.826050,463.812836 422.835876,461.200195 
	C433.283905,454.090485 443.917816,454.547974 454.019470,460.702789 
	C464.590393,467.143555 468.362152,477.601257 466.815094,489.411804 
	C465.619293,498.541229 460.278961,505.589508 451.929596,510.035278 
	C450.668060,510.706970 449.098389,510.976532 448.682922,512.724243 
	C442.312347,513.000000 435.624725,513.000000 428.468536,513.000000 
z"/>
<path fill="#7DFFC6" opacity="1.000000" stroke="none" 
	d="
M1.000000,210.467606 
	C4.767560,209.215103 5.647089,205.023224 8.933721,203.455658 
	C15.090640,200.519104 21.101740,200.165314 27.012573,203.580688 
	C33.361595,207.249268 36.437351,213.254349 35.829952,220.294250 
	C35.200443,227.590424 31.535961,233.633621 23.840336,235.571228 
	C14.315344,237.969421 6.825600,234.615845 1.261967,226.682098 
	C1.000000,221.645065 1.000000,216.290146 1.000000,210.467606 
z"/>
<path fill="#7DFFC6" opacity="1.000000" stroke="none" 
	d="
M87.467606,513.000000 
	C88.091980,511.525787 86.591270,510.959808 85.877914,510.498077 
	C79.178238,506.161163 76.811424,499.777771 78.373604,492.370789 
	C80.169609,483.855164 86.352142,478.896179 94.695816,478.004700 
	C100.594841,477.374390 108.688210,482.298187 111.782463,488.399841 
	C114.291237,493.346954 113.233002,502.965576 109.540428,506.920013 
	C107.657585,508.936401 105.433861,510.634460 103.682114,512.738159 
	C98.645073,513.000000 93.290138,513.000000 87.467606,513.000000 
z"/>
<path fill="#7DFFC6" opacity="1.000000" stroke="none" 
	d="
M240.533142,1.000000 
	C241.540436,4.614081 245.587906,4.768122 247.278900,7.574408 
	C252.181320,15.710189 252.771027,22.387430 246.063950,30.120398 
	C240.419418,36.628292 232.026230,37.957542 223.957153,33.394470 
	C213.135651,27.274918 212.329453,10.417068 223.857513,3.088512 
	C224.576904,2.631193 225.189651,2.216605 225.317871,1.261968 
	C230.022095,1.000000 235.044189,1.000000 240.533142,1.000000 
z"/>
<path fill="#7DFFC6" opacity="1.000000" stroke="none" 
	d="
M513.000000,418.533142 
	C509.385651,419.541870 509.083740,423.472809 506.454498,425.310150 
	C499.989288,429.828094 489.791168,430.010590 483.772675,424.109253 
	C477.636993,418.092926 475.999481,409.855988 480.648834,401.932281 
	C487.207794,390.754059 503.456116,390.442780 510.910309,401.858154 
	C511.373505,402.567535 511.782928,403.189728 512.738037,403.317902 
	C513.000000,408.022095 513.000000,413.044189 513.000000,418.533142 
z"/>
<path fill="#000000" opacity="1.000000" stroke="none" 
	d="
M513.000000,17.529547 
	C512.702759,18.326309 512.259094,18.893154 511.959656,18.251019 
	C508.430573,10.682355 502.334259,5.688986 495.683899,1.274865 
	C496.328949,1.000000 496.657898,1.000000 496.986847,1.000000 
	C502.249969,1.000000 507.513123,1.000000 512.776245,1.000000 
	C512.850830,6.353031 512.925415,11.706062 513.000000,17.529547 
z"/>
<path fill="#000000" opacity="1.000000" stroke="none" 
	d="
M8.505266,1.000000 
	C7.767253,4.964524 4.086052,6.808396 1.264482,9.312941 
	C1.000000,8.677193 1.000000,8.354386 1.000000,8.031579 
	C0.999999,1.000000 0.999999,1.000000 8.505266,1.000000 
z"/>
<path fill="#FF70EA" opacity="1.000000" stroke="none" 
	d="
M235.119995,85.000305 
	C248.903381,85.966583 260.249969,81.062195 269.792542,72.369888 
	C273.127045,69.332512 276.199524,65.538101 278.404785,61.243107 
	C281.974213,54.291332 288.640076,51.489040 296.720734,53.016739 
	C302.534943,54.115952 308.795959,61.295605 308.906250,67.891518 
	C309.023956,74.928581 304.789673,80.333008 300.813721,85.645813 
	C288.816620,101.676826 272.865051,111.908539 253.343964,115.706482 
	C233.875000,119.494286 215.014420,116.813461 197.569183,106.834412 
	C192.411636,103.884193 189.575836,95.101387 191.509644,89.000023 
	C193.639145,82.281197 199.186172,78.095589 205.681122,77.762978 
	C211.915527,77.443695 216.514053,80.826286 221.868561,82.428131 
	C226.059494,83.681877 230.144836,85.329636 235.119995,85.000305 
z"/>
<path fill="#FF70EA" opacity="1.000000" stroke="none" 
	d="
M389.140564,146.635040 
	C383.431702,135.582031 388.739319,123.094513 403.682037,122.001007 
	C425.371124,120.413811 445.188843,125.674194 461.955444,139.652100 
	C476.185669,151.515457 485.693848,166.574173 489.097595,185.196350 
	C490.194214,191.196030 490.916687,196.777115 486.673828,201.851440 
	C482.269135,207.119370 476.693634,209.206375 470.045929,207.525955 
	C462.711975,205.672058 459.182922,200.088104 458.074097,193.175064 
	C454.501740,170.902496 434.283966,153.754929 412.291779,153.921661 
	C407.239044,153.959961 402.150146,154.739166 397.055756,153.167542 
	C393.475281,152.062988 391.039612,150.136780 389.140564,146.635040 
z"/>
<path fill="#FF70EA" opacity="1.000000" stroke="none" 
	d="
M249.738556,359.720123 
	C241.326401,371.781647 239.393509,384.734924 243.210342,398.317078 
	C245.375732,406.022614 246.342743,412.804230 239.661545,418.926483 
	C231.516708,426.389771 217.461365,423.119690 214.014404,412.638092 
	C211.626160,405.375824 210.286850,398.006256 209.855637,390.269623 
	C208.407928,364.295685 217.819778,343.008606 236.810760,325.839844 
	C245.005997,318.430969 254.459015,312.525909 265.479492,310.362305 
	C272.927399,308.900055 281.643219,314.439575 282.884521,323.045319 
	C284.090088,331.403687 281.068390,337.856079 272.263977,341.493530 
	C263.241852,345.220917 254.778732,350.198547 249.738556,359.720123 
z"/>
<path fill="#17ABFA" opacity="1.000000" stroke="none" 
	d="
M80.797058,268.239197 
	C84.901245,263.927765 90.432182,263.240906 95.205788,263.329407 
	C100.958733,263.436066 106.931549,264.523590 112.120178,268.392334 
	C121.083916,275.075867 126.490486,287.462128 123.865448,298.166107 
	C120.717857,311.000916 111.795021,318.159241 100.711060,320.127991 
	C93.624146,321.386780 87.311546,320.338684 81.097702,316.435272 
	C80.039017,313.966858 81.467606,312.572388 82.690964,311.308533 
	C93.990311,299.635010 93.324020,283.688080 82.842445,272.889801 
	C81.689445,271.701965 80.594681,270.412781 80.797058,268.239197 
z"/>
<path fill="#17ABFA" opacity="1.000000" stroke="none" 
	d="
M347.934296,219.336624 
	C364.693390,207.823715 386.677124,216.013687 391.380554,235.148148 
	C395.864319,253.388977 385.014404,270.417053 364.858276,271.038879 
	C359.347473,271.208923 354.166901,270.322418 349.116089,267.436462 
	C348.103516,264.537933 349.956604,263.075592 351.371643,261.545105 
	C362.340546,249.681366 361.220490,232.812576 350.697601,223.756668 
	C349.456390,222.688507 348.308136,221.439667 347.934296,219.336624 
z"/>
<path fill="#7DFFC6" opacity="1.000000" stroke="none" 
	d="
M135.831955,404.642212 
	C146.324554,398.419067 159.974457,403.783325 162.585953,417.034851 
	C164.257233,425.515411 156.451187,436.456787 147.708893,437.113831 
	C135.188278,438.054901 128.521286,431.214447 127.337959,420.306549 
	C126.680000,414.241577 129.298904,408.168701 135.831955,404.642212 
z"/>
<path fill="#7DFFC6" opacity="1.000000" stroke="none" 
	d="
M269.727844,194.219574 
	C263.068085,182.886520 263.367584,175.037781 271.048096,168.557693 
	C276.469299,163.983826 282.764801,162.691589 289.527557,165.893616 
	C295.909210,168.915207 299.769287,173.380554 300.119446,180.938568 
	C300.474792,188.608597 297.462982,194.088181 290.954163,197.450546 
	C283.463287,201.320221 276.384949,199.718292 269.727844,194.219574 
z"/>
<path fill="#7DFFC6" opacity="1.000000" stroke="none" 
	d="
M385.752380,69.055161 
	C374.601318,74.359474 362.741394,67.388496 360.267242,55.900673 
	C358.598999,48.154869 366.019409,36.880707 373.962616,36.008617 
	C386.956390,34.582027 394.272980,40.446945 395.628113,52.789398 
	C396.354279,59.403324 392.811035,65.627457 385.752380,69.055161 
z"/>
<path fill="#33B8FF" opacity="1.000000" stroke="none" 
	d="
M347.575256,219.097717 
	C365.456970,231.097000 364.299286,252.431015 351.238190,264.276062 
	C350.507294,264.938904 349.915863,265.755615 349.104614,266.804138 
	C334.434174,259.072754 330.862488,238.647293 340.733826,225.562180 
	C342.656372,223.013687 344.951660,221.196518 347.575256,219.097717 
z"/>
<path fill="#33B8FF" opacity="1.000000" stroke="none" 
	d="
M80.603027,267.951416 
	C83.167770,271.618378 87.048752,273.890289 89.054955,277.914185 
	C95.516045,290.873474 93.825378,302.532959 83.597572,312.911316 
	C82.783401,313.737488 82.039642,314.633026 81.107101,315.798584 
	C70.400795,311.916290 64.099716,295.756470 68.406647,282.969238 
	C70.611526,276.422943 74.900558,271.876862 80.603027,267.951416 
z"/>
<path fill="#33B8FF" opacity="1.000000" stroke="none" 
	d="
M469.610474,4.954445 
	C472.149841,7.348767 474.528015,9.669733 476.508820,12.291021 
	C484.873230,23.360224 483.755463,38.586712 473.990692,48.527397 
	C472.717743,49.823299 471.506622,51.179970 470.110718,52.811127 
	C463.865479,49.777470 459.886200,44.755817 457.633545,38.194912 
	C453.294495,25.557230 458.685669,11.825151 469.610474,4.954445 
z"/>
<path fill="#33B8FF" opacity="1.000000" stroke="none" 
	d="
M422.649780,461.002350 
	C425.196533,463.050781 427.745575,465.008575 429.602539,467.485291 
	C438.973541,479.983551 437.284271,496.109802 425.715118,506.585510 
	C425.115509,507.128448 424.636322,507.804413 424.023438,508.752380 
	C415.772949,505.749847 412.251373,498.704590 410.507538,490.878326 
	C408.013306,479.684174 411.919861,468.045135 422.649780,461.002350 
z"/>
</svg>